<svg xmlns="http://www.w3.org/2000/svg" viewBox="0 0 796 796"><defs><style>.cls-1{fill:#8b272d;}.cls-2{fill:#fff;}</style></defs><title>Element 1</title><g id="Ebene_2" data-name="Ebene 2"><g id="Ebene_2-2" data-name="Ebene 2"><circle class="cls-1" cx="398" cy="398" r="398"/></g><g id="Ebene_1-2" data-name="Ebene 1"><path class="cls-2" d="M469.28,572.24a21,21,0,0,1-21-21,50.14,50.14,0,1,0-100.27,0,21,21,0,0,1-42,0,92.14,92.14,0,1,1,184.27,0A21,21,0,0,1,469.28,572.24Z"/><path class="cls-2" d="M398.15,501.1a21,21,0,0,1-21-21V241.72a21,21,0,0,1,42,0V480.1A21,21,0,0,1,398.15,501.1Z"/><path class="cls-2" d="M398.15,197.06a21,21,0,0,1-21-21v-.49a21,21,0,0,1,42,0v.49A21,21,0,0,1,398.15,197.06Z"/><path class="cls-2" d="M398.14,641.43a21,21,0,0,1-21-20.86l-.49-69.18a21,21,0,0,1,20.85-21.15h.15a21,21,0,0,1,21,20.85l.49,69.19a21,21,0,0,1-20.86,21.15Z"/><path class="cls-2" d="M397.47,572.54a21,21,0,0,1-.08-42l71.81-.3a21,21,0,0,1,.17,42l-71.81.3Z"/><path class="cls-2" d="M168.81,557.14a21,21,0,0,1-21-21V465.55a21,21,0,0,1,42,0v70.59A21,21,0,0,1,168.81,557.14Z"/><path class="cls-2" d="M233.47,623.32a85.72,85.72,0,0,1-85.63-85.62,21,21,0,0,1,42,0,43.67,43.67,0,0,0,43.63,43.62,21,21,0,1,1,0,42Z"/><path class="cls-2" d="M168.79,487.46a21,21,0,0,1-21-21,43.68,43.68,0,0,0-43.62-43.63,21,21,0,0,1,0-42,85.73,85.73,0,0,1,85.62,85.63A21,21,0,0,1,168.79,487.46Z"/><path class="cls-2" d="M168.53,356.81a21,21,0,0,1-21-21V265.22a21,21,0,0,1,42,0v70.59A21,21,0,0,1,168.53,356.81Z"/><path class="cls-2" d="M168.57,284.67a21,21,0,0,1-21-21A85.72,85.72,0,0,1,233.19,178a21,21,0,0,1,0,42,43.67,43.67,0,0,0-43.62,43.63A21,21,0,0,1,168.57,284.67Z"/><path class="cls-2" d="M103.89,420.53a21,21,0,1,1,0-42,43.68,43.68,0,0,0,43.63-43.63,21,21,0,0,1,42,0A85.72,85.72,0,0,1,103.89,420.53Z"/><path class="cls-2" d="M628.09,354.13a21,21,0,0,1-21-21V262.54a21,21,0,1,1,42,0v70.59A21,21,0,0,1,628.09,354.13Z"/><path class="cls-2" d="M628.05,282a21,21,0,0,1-21-21,43.67,43.67,0,0,0-43.62-43.62,21,21,0,0,1,0-42A85.72,85.72,0,0,1,649.05,261,21,21,0,0,1,628.05,282Z"/><path class="cls-2" d="M692.73,417.85a85.73,85.73,0,0,1-85.63-85.63,21,21,0,0,1,42,0,43.68,43.68,0,0,0,43.63,43.63,21,21,0,0,1,0,42Z"/><path class="cls-2" d="M628.36,554.46a21,21,0,0,1-21-21V462.87a21,21,0,0,1,42,0v70.59A21,21,0,0,1,628.36,554.46Z"/><path class="cls-2" d="M563.7,620.64a21,21,0,0,1,0-42A43.67,43.67,0,0,0,607.33,535a21,21,0,0,1,42,0A85.73,85.73,0,0,1,563.7,620.64Z"/><path class="cls-2" d="M628.37,484.78a21,21,0,0,1-21-21A85.74,85.74,0,0,1,693,378.15a21,21,0,0,1,0,42,43.68,43.68,0,0,0-43.63,43.63A21,21,0,0,1,628.37,484.78Z"/></g></g></svg>